<?xml version="1.0" encoding="UTF-8"?>
<svg version="1.1" xmlns="http://www.w3.org/2000/svg" width="2048" height="2048">
<path d="M0 0 C7.78601249 5.73550991 12.46653801 12.25551749 16.875 20.75 C18.07972807 22.98491493 19.285473 25.21928199 20.4921875 27.453125 C21.08225586 28.55978516 21.67232422 29.66644531 22.28027344 30.80664062 C24.76596159 35.42231369 27.37747757 39.96115418 30 44.5 C40.31925044 62.49812928 50.46715526 80.57129785 60 99 C66.42269589 87.71494184 72.81042048 76.41492707 79 65 C85.19662593 53.5882299 91.53971252 42.26457352 98 31 C98.58023926 29.98647461 99.16047852 28.97294922 99.75830078 27.92871094 C101.49554094 24.90489143 103.24539667 21.88877153 105 18.875 C105.52779053 17.95654297 106.05558105 17.03808594 106.59936523 16.09179688 C109.33896181 11.42365408 111.95131687 7.60193188 116 4 C117.11375 2.948125 117.11375 2.948125 118.25 1.875 C124.80589792 -2.5949304 132.16037327 -4.0701331 140 -3 C147.42018483 -1.03387318 153.9520045 2.44634346 158.2922821 8.9306488 C161.47095177 14.55178333 163.49614172 20.07298234 165.20703125 26.28515625 C165.48946686 27.27463257 165.77190247 28.26410889 166.06289673 29.28356934 C166.9898979 32.54034671 167.90111458 35.80132172 168.8125 39.0625 C169.46446597 41.36286377 170.117564 43.66290696 170.77172852 45.96264648 C172.14873769 50.80945138 173.51961837 55.65792841 174.88574219 60.5078125 C178.0341817 71.67811857 181.22796388 82.83547171 184.41830444 93.99386597 C185.40400038 97.44520369 186.38666093 100.89739077 187.3684082 104.34985352 C187.99406269 106.54710631 188.61995461 108.74429151 189.24609375 110.94140625 C189.54810196 112.00162491 189.85011017 113.06184357 190.16127014 114.15419006 C191.8225961 119.96239893 193.5181099 125.75894738 195.25048828 131.54638672 C195.62142105 132.78654037 195.99235382 134.02669403 196.37452698 135.3044281 C197.09261851 137.69805657 197.81442131 140.09057561 198.54039001 142.48182678 C199.02325218 144.08978371 199.02325218 144.08978371 199.51586914 145.73022461 C199.802892 146.67739853 200.08991486 147.62457245 200.38563538 148.60044861 C201 151 201 151 201 154 C185.16 154 169.32 154 153 154 C149.62494483 146.12487126 149.62494483 146.12487126 148.80834961 143.04467773 C148.62027237 142.34565842 148.43219513 141.6466391 148.23841858 140.92643738 C148.04501389 140.18629898 147.85160919 139.44616058 147.65234375 138.68359375 C147.43932114 137.88572952 147.22629852 137.0878653 147.00682068 136.26582336 C146.31189887 133.65771925 145.62457452 131.04768131 144.9375 128.4375 C144.45499777 126.61935784 143.97208192 124.8013254 143.48876953 122.98339844 C142.23690145 118.26888681 140.99178786 113.55261808 139.74835205 108.83587646 C138.76943163 105.12626228 137.78614926 101.41781086 136.80281067 97.70936584 C135.65796544 93.39016921 134.51625732 89.07014581 133.375 84.75 C133.15931366 83.93449677 132.94362732 83.11899353 132.72140503 82.27877808 C132.11209931 79.97274124 131.50490955 77.66615847 130.8984375 75.359375 C130.71977646 74.68409256 130.54111542 74.00881012 130.35704041 73.31306458 C129.46024894 69.89201378 128.64990736 66.47671314 128 63 C126.53433796 65.19849306 125.3135726 67.23512619 124.12744141 69.5715332 C123.76548676 70.2818721 123.4035321 70.992211 123.03060913 71.72407532 C122.44698105 72.87579475 122.44698105 72.87579475 121.8515625 74.05078125 C121.00826353 75.70579313 120.16483398 77.36073847 119.32128906 79.015625 C118.66054382 80.3140332 118.66054382 80.3140332 117.9864502 81.63867188 C110.60157427 96.14224242 103.10869829 110.55675858 95.21240234 124.78955078 C93.63528055 127.66495568 92.11260321 130.56729216 90.5925293 133.47314453 C81.10330419 151.56992225 81.10330419 151.56992225 70.734375 155.1171875 C61.89679281 157.20640672 51.19102363 157.44371323 43 153 C33.7742038 146.27316845 29.10097649 134.75524241 23.875 124.875 C23.22200857 123.64773612 22.56876478 122.42060648 21.9152832 121.19360352 C16.55195015 111.10697152 11.2751166 100.97529464 6.02734375 90.828125 C4.04173722 86.99306054 2.03476542 83.17066758 0.00390625 79.359375 C-0.46233154 78.48289307 -0.92856934 77.60641113 -1.40893555 76.70336914 C-2.27522032 75.0781981 -3.1449367 73.45484949 -4.01879883 71.83374023 C-4.39931396 71.11903564 -4.7798291 70.40433105 -5.171875 69.66796875 C-5.5028418 69.05203857 -5.83380859 68.4361084 -6.17480469 67.80151367 C-7.04958678 65.89174531 -7.55370388 64.04872517 -8 62 C-8.66 62 -9.32 62 -10 62 C-10.12955078 63.75376953 -10.12955078 63.75376953 -10.26171875 65.54296875 C-11.05783411 72.62000809 -13.00320488 79.44251326 -14.8125 86.3125 C-15.20534968 87.82034435 -15.59800428 89.32823953 -15.99047852 90.83618164 C-19.14161822 102.89842517 -22.37562046 114.93925153 -25.63461304 126.9727478 C-26.1686216 128.94463568 -26.70152493 130.91682322 -27.23330688 132.88931274 C-27.98300564 135.66575417 -28.73860247 138.4405196 -29.49609375 141.21484375 C-29.71971588 142.04561432 -29.94333801 142.87638489 -30.17373657 143.73233032 C-30.49077042 144.88564346 -30.49077042 144.88564346 -30.81420898 146.06225586 C-30.99580063 146.72946152 -31.17739227 147.39666718 -31.36448669 148.08409119 C-32 150 -32 150 -34 154 C-49.51 154 -65.02 154 -81 154 C-78.74995608 142.74978038 -78.74995608 142.74978038 -77.46630859 138.39746094 C-77.1771608 137.40932907 -76.888013 136.4211972 -76.59010315 135.40312195 C-76.27935349 134.35743546 -75.96860382 133.31174896 -75.6484375 132.234375 C-75.31718369 131.10703445 -74.98592987 129.97969391 -74.64463806 128.81819153 C-73.55898932 125.12753297 -72.46712478 121.43874688 -71.375 117.75 C-70.6140623 115.17071688 -69.85431765 112.59108269 -69.09448242 110.01147461 C-67.32373707 104.00276997 -65.54826135 97.99547389 -63.7709856 91.98869801 C-62.05077326 86.17392297 -60.33558527 80.35767587 -58.62103271 74.54122925 C-57.19364588 69.7003096 -55.76422884 64.85999156 -54.33404541 60.01989746 C-53.66271539 57.74779612 -52.99176478 55.47558264 -52.32122803 53.20324707 C-50.23277165 46.12985599 -48.1301157 39.0609646 -46 32 C-45.71926636 31.06900482 -45.43853271 30.13800964 -45.14929199 29.17880249 C-44.34861321 26.53847447 -43.53783076 23.90150912 -42.72265625 21.265625 C-42.48863602 20.49388443 -42.25461578 19.72214386 -42.01350403 18.92701721 C-39.14444809 9.7592107 -34.23063572 3.89650344 -26 -1 C-17.61534493 -4.41597059 -8.06444825 -4.13576081 0 0 Z " fill="#0E46F2" transform="translate(963,859)"/>
<path d="M0 0 C0.71826965 -0.00067474 1.43653931 -0.00134949 2.17657471 -0.00204468 C22.72805835 0.02833928 42.78936562 1.96605077 62.4375 8.25 C64.2009375 8.80300781 64.2009375 8.80300781 66 9.3671875 C82.85904726 15.24353811 97.61895631 26.37749885 105.85717773 42.41162109 C110.6459789 52.42445397 113.06330518 63.17057952 113.4375 74.25 C113.47746094 75.17941406 113.51742187 76.10882812 113.55859375 77.06640625 C114.03639294 98.17388829 109.00141549 117.37322763 94.3125 132.9375 C69.92804631 156.25887124 33.81911973 159.47415476 1.75 159.5 C0.98937256 159.50067474 0.22874512 159.50134949 -0.55493164 159.50204468 C-30.77317339 159.45983382 -64.52987078 156.60885151 -88.5625 136.25 C-89.35140625 135.58484375 -90.1403125 134.9196875 -90.953125 134.234375 C-106.00571944 120.41056378 -110.25320583 101.37993202 -111.75 81.796875 C-112.31273549 63.36728765 -107.48619476 44.1470569 -95.3125 30.0625 C-76.87346617 10.67236792 -52.40897198 4.11627881 -26.5625 1.25 C-25.33116333 1.10860596 -25.33116333 1.10860596 -24.07495117 0.96435547 C-16.06102909 0.13253253 -8.04964995 0.00685264 0 0 Z M-54.5625 52.25 C-62.95456523 62.48762314 -63.52396541 74.55104109 -62.5625 87.25 C-61.48303285 95.10561808 -59.2883787 102.53545968 -53.5625 108.25 C-37.78028821 119.20386389 -16.74911235 118.45016148 1.625 118.4375 C2.29671234 118.43722809 2.96842468 118.43695618 3.66049194 118.43667603 C25.45959066 118.53416405 25.45959066 118.53416405 46.4375 113.25 C47.15035156 112.97414063 47.86320312 112.69828125 48.59765625 112.4140625 C55.07239857 109.58211913 59.33746941 105.05217087 62.25 98.625 C64.44656172 92.38214039 64.65049206 86.62678346 64.6875 80.0625 C64.708125 79.16724609 64.72875 78.27199219 64.75 77.34960938 C64.80094249 68.53019142 63.14667205 60.01858843 57.40234375 53.06640625 C35.89550637 33.18433988 -32.76615797 33.78904127 -54.5625 52.25 Z " fill="#0E46F2" transform="translate(524.5625,855.75)"/>
<path d="M0 0 C0.82190543 -0.00020928 1.64381086 -0.00041857 2.49062252 -0.00063419 C3.90923077 -0.0153854 3.90923077 -0.0153854 5.35649776 -0.03043461 C6.91090321 -0.01593266 6.91090321 -0.01593266 8.49671078 -0.00113773 C9.5898962 -0.00654072 10.68308163 -0.0119437 11.80939388 -0.01751041 C15.4403828 -0.03006081 19.07058761 -0.01344789 22.70154476 0.0044775 C25.23246458 0.00432249 27.76338463 0.00283323 30.29430294 0.00006771 C35.61497976 -0.00131968 40.93538061 0.01085008 46.25598812 0.03401852 C52.36163937 0.06042571 58.46690954 0.06244262 64.57259804 0.05063015 C70.47952519 0.03973638 76.38631611 0.04624602 82.29323292 0.06018543 C84.78753866 0.06466339 87.28185551 0.06506918 89.77616215 0.06112003 C116.56994936 0.03858752 143.24510847 2.09303 163.84998226 21.3169775 C173.11392197 31.25659803 176.48882 44.02464753 176.28967953 57.32723141 C175.78360236 70.26813798 171.08711705 81.93840924 162.17810726 91.39900875 C155.05584427 97.92673871 146.98948416 101.57811441 137.88513851 104.50057125 C138.53277157 105.04209835 138.53277157 105.04209835 139.19348812 105.59456539 C145.35561605 110.85869081 151.06967765 116.53277893 156.785285 122.27034664 C158.44441171 123.93483403 160.10881903 125.59390572 161.77381039 127.25252438 C166.84653408 132.32245406 171.82428834 137.42578733 176.4830389 142.88460445 C178.93945158 145.71570241 181.67008069 148.25396968 184.38123226 150.83650875 C185.88513851 152.50057125 185.88513851 152.50057125 185.88513851 154.50057125 C177.66164822 154.66315036 169.43883515 154.78733279 161.21413231 154.86325645 C157.39449683 154.89970686 153.575965 154.94909985 149.75696468 155.02864742 C146.06750967 155.10501095 142.37911226 155.14662312 138.68892765 155.16471195 C137.28504512 155.17759274 135.88121703 155.20274802 134.47778797 155.24068165 C123.50062533 155.52543932 123.50062533 155.52543932 119.49922848 152.98694515 C117.7353876 151.24702587 116.3034145 149.52631368 114.88513851 147.50057125 C114.14908382 146.64334469 113.41302914 145.78611813 112.65466976 144.902915 C112.00884945 144.08951656 111.36302914 143.27611813 110.69763851 142.43807125 C106.64699476 137.4025107 102.47276592 132.49140268 98.22229671 127.62337399 C97.74622982 127.0736694 97.27016293 126.52396481 96.77966976 125.9576025 C96.31686611 125.43850307 95.85406246 124.91940365 95.37723446 124.38457394 C93.88513851 122.50057125 93.88513851 122.50057125 92.86427975 120.44812679 C91.45590346 117.85020845 90.23933908 116.31412026 87.88513851 114.50057125 C82.46066712 113.29082001 77.0729204 113.42815739 71.54920101 113.50057125 C69.94349868 113.49304801 68.3378093 113.48200989 66.73215389 113.46761227 C62.51980384 113.439237 58.30897775 113.45842832 54.09668636 113.48769283 C49.03546979 113.51289262 43.97434432 113.47872557 38.91316891 113.454566 C31.23627266 113.42453903 23.56311862 113.46968948 15.88513851 113.50057125 C15.88513851 127.03057125 15.88513851 140.56057125 15.88513851 154.50057125 C0.04513851 154.50057125 -15.79486149 154.50057125 -32.11486149 154.50057125 C-32.11486149 128.10057125 -32.11486149 101.70057125 -32.11486149 74.50057125 C-17.14691227 74.46189938 -17.14691227 74.46189938 -1.87658024 74.42244625 C4.45351739 74.39727324 10.78358479 74.37109903 17.11365414 74.340415 C27.15605094 74.29192163 37.1983472 74.24745967 47.2408514 74.22957516 C54.55585833 74.21652915 61.87066003 74.18948968 69.18555135 74.14595819 C73.05532078 74.12340929 76.92483773 74.10765659 80.79467869 74.1086874 C84.44493675 74.10943794 88.09463808 74.09133137 91.74475193 74.05940342 C93.70710672 74.04696224 95.66955534 74.05393768 97.63193417 74.06171322 C106.20771625 73.96171075 115.46108408 73.116198 122.01013851 66.93807125 C125.13892657 62.87064678 125.22532264 59.51828709 124.88513851 54.50057125 C123.21721633 49.28831444 120.51665436 47.20672497 116.01795101 44.48104 C111.77706742 42.5314763 107.5447833 42.37111222 102.93096066 42.34235287 C101.14105709 42.32766964 101.14105709 42.32766964 99.31499386 42.31268978 C98.01451611 42.30693432 96.71403835 42.30117886 95.37415218 42.29524899 C93.98426686 42.28566385 92.59438441 42.2756534 91.20450497 42.26525021 C87.43841068 42.23826386 83.67230393 42.21722044 79.90616679 42.19724822 C75.96768197 42.1753499 72.02923526 42.14798006 68.09078121 42.12119198 C60.63590748 42.07131704 53.18101254 42.02635896 45.7260974 41.98316962 C37.23760512 41.93375276 28.74915109 41.87885115 20.26069582 41.82349002 C2.80221208 41.70974981 -14.65630718 41.60289349 -32.11486149 41.50057125 C-30.48632071 37.15306349 -28.28081147 33.887495 -25.36486149 30.31307125 C-24.37983288 29.08312567 -23.39549376 27.85262768 -22.41173649 26.621665 C-21.88386539 25.96408199 -21.3559943 25.30649899 -20.81212711 24.62898922 C-17.710386 20.7393202 -14.66559408 16.80528123 -11.61486149 12.87557125 C-11.01576969 12.10575924 -10.41667789 11.33594723 -9.7994318 10.54280758 C-6.66386452 6.57864551 -6.66386452 6.57864551 -3.812006 2.41412926 C-2.11486149 0.50057125 -2.11486149 0.50057125 0 0 Z " fill="#0E46F2" transform="translate(692.1148614883423,858.4994287490845)"/>
<path d="M0 0 C8.66760314 6.01483426 14.08896499 15.53072988 19.84814453 24.16552734 C22.15862953 27.62481234 24.52295458 31.04578351 26.88671875 34.46875 C27.77232176 35.76028891 28.65773197 37.05196004 29.54296875 38.34375 C33.13254866 43.5694644 36.76186157 48.76747758 40.38671875 53.96875 C45.82104694 61.76840682 51.21702026 69.59235343 56.57324219 77.44580078 C61.5741645 84.76868979 66.6411384 92.04500757 71.7109375 99.3203125 C75.9205951 105.36307727 80.11290996 111.41688981 84.26977539 117.49609375 C87.04186699 121.54260853 89.84835563 125.56338631 92.671875 129.57421875 C93.39890625 130.60998047 94.1259375 131.64574219 94.875 132.71289062 C96.31484977 134.76269452 97.7587117 136.8096874 99.20703125 138.85351562 C99.86574219 139.79259766 100.52445313 140.73167969 101.203125 141.69921875 C101.79295166 142.53477295 102.38277832 143.37032715 102.99047852 144.23120117 C104.51171875 146.65625 104.51171875 146.65625 106.51171875 151.65625 C47.44171875 151.65625 -11.62828125 151.65625 -72.48828125 151.65625 C-72.48828125 150.66625 -72.48828125 149.67625 -72.48828125 148.65625 C-71.82828125 148.65625 -71.16828125 148.65625 -70.48828125 148.65625 C-70.24851562 147.94984375 -70.00875 147.2434375 -69.76171875 146.515625 C-68.2790029 143.18633664 -66.39143164 140.75209482 -64.11328125 137.90625 C-59.89814442 132.56487145 -55.89879539 127.09936585 -51.98828125 121.53125 C-51.47217285 120.79680664 -50.95606445 120.06236328 -50.42431641 119.30566406 C-48.41682943 116.43973423 -46.42935776 113.56786477 -44.48828125 110.65625 C-41.81808472 110.25752258 -41.81808472 110.25752258 -38.38623047 110.22387695 C-37.10505341 110.20408279 -35.82387634 110.18428864 -34.50387573 110.16389465 C-33.10024156 110.15712434 -31.69660579 110.15067754 -30.29296875 110.14453125 C-28.86091561 110.12769159 -27.42887732 110.10954232 -25.99685669 110.09013367 C-22.22561278 110.04254942 -18.45442904 110.012795 -14.6829834 109.98669434 C-10.83540967 109.95693096 -6.98804347 109.91038629 -3.140625 109.86523438 C4.41005347 109.77910564 11.96074688 109.71180341 19.51171875 109.65625 C18.81046875 108.71265625 18.10921875 107.7690625 17.38671875 106.796875 C12.23759159 99.83982348 7.21052916 92.84337364 2.45507812 85.60839844 C-1.04594607 80.29000842 -4.65221832 75.04250752 -8.23828125 69.78125 C-9.71249459 67.61736121 -11.18646109 65.45330423 -12.66015625 63.2890625 C-13.30049805 62.34949707 -13.94083984 61.40993164 -14.60058594 60.44189453 C-16.57842923 57.52321994 -18.53608606 54.59212203 -20.48828125 51.65625 C-28.44599701 62.37480592 -36.1465723 73.25793216 -43.78027344 84.20898438 C-50.4118136 93.71077949 -57.11518505 103.15701186 -63.92578125 112.53125 C-69.02282066 119.55001103 -73.96918712 126.66070519 -78.82397461 133.84912109 C-79.79835936 135.28788468 -80.78554396 136.71808865 -81.78720093 138.13800049 C-83.54091226 140.6624349 -83.54091226 140.6624349 -85.08183289 143.47372437 C-89.73356243 151.07525614 -89.73356243 151.07525614 -94.40364075 152.62153625 C-97.89778013 152.92866266 -101.23457285 152.89547707 -104.73828125 152.73046875 C-105.99213623 152.71490433 -107.24599121 152.6993399 -108.5378418 152.68330383 C-111.84812936 152.63235787 -115.15236139 152.53386601 -118.46063232 152.41156006 C-121.84540209 152.29836421 -125.2310646 152.2486557 -128.6171875 152.19335938 C-135.24322793 152.07238673 -141.86526031 151.88857872 -148.48828125 151.65625 C-147.78177788 148.56973446 -146.93562405 146.58307374 -145.0390625 144.03125 C-144.52786865 143.33507568 -144.0166748 142.63890137 -143.48999023 141.92163086 C-142.93255127 141.17405518 -142.3751123 140.42647949 -141.80078125 139.65625 C-140.60933291 138.03353816 -139.41927745 136.4098029 -138.23046875 134.78515625 C-137.61268555 133.94227051 -136.99490234 133.09938477 -136.35839844 132.23095703 C-133.32637061 128.05657511 -130.37515632 123.82674832 -127.42578125 119.59375 C-126.24875534 117.907512 -125.07167243 116.22131379 -123.89453125 114.53515625 C-123.32347656 113.7167627 -122.75242187 112.89836914 -122.1640625 112.05517578 C-115.53956912 102.57203593 -108.85009624 93.13982919 -102.05078125 83.78125 C-97.5474351 77.58081512 -93.16721609 71.30910611 -88.86328125 64.96875 C-84.55649582 58.62474594 -80.1488085 52.38060713 -75.58374023 46.22021484 C-72.13206646 41.55660335 -68.76460212 36.83872608 -65.42578125 32.09375 C-64.92385254 31.3826709 -64.42192383 30.6715918 -63.90478516 29.93896484 C-61.52639667 26.56655375 -59.16143076 23.18624483 -56.82421875 19.78515625 C-42.75776318 -0.55759987 -24.25728883 -13.09969758 0 0 Z " fill="#0E46F2" transform="translate(1705.48828125,861.34375)"/>
<path d="M0 0 C16.17 0 32.34 0 49 0 C49.02578125 6.909375 49.0515625 13.81875 49.078125 20.9375 C49.10329935 25.32165141 49.12963686 29.70573424 49.16015625 34.08984375 C49.20845918 41.04443602 49.25251603 47.99886949 49.27099609 54.95361328 C49.28616953 60.56238518 49.320628 66.17074095 49.36830902 71.77932739 C49.3831156 73.91623309 49.3910406 76.0531982 49.39188385 78.19015503 C49.39425736 81.18971828 49.42136893 84.18813513 49.45410156 87.1875 C49.4490712 88.06575943 49.44404083 88.94401886 49.43885803 89.84889221 C49.54879046 96.38479878 51.06248759 101.97569745 55.71875 106.76953125 C66.65461448 113.17276769 79.45917524 114.13361338 91.8828125 114.203125 C92.70014862 114.20882507 93.51748474 114.21452515 94.35958862 114.22039795 C96.07890559 114.22977667 97.79823996 114.23635325 99.51757812 114.24023438 C102.09798946 114.24989884 104.67758859 114.28097378 107.2578125 114.3125 C127.40023898 114.5734484 127.40023898 114.5734484 145 106 C150.85734719 99.98851209 151.2989677 93.57473224 151.31884766 85.59814453 C151.32889328 84.67067917 151.3389389 83.74321381 151.34928894 82.78764343 C151.3800667 79.73603916 151.39714113 76.68452241 151.4140625 73.6328125 C151.43277848 71.51145681 151.45235222 69.39010852 151.4727478 67.26876831 C151.52402943 61.69576388 151.56367649 56.12273533 151.60089111 50.54962158 C151.6480044 43.85726816 151.70958529 37.16503408 151.76873779 30.47277832 C151.85690165 20.31523382 151.9267009 10.15771164 152 0 C168.17 0 184.34 0 201 0 C201.16043524 24.35496034 201.16043524 24.35496034 201.1953125 34.81445312 C201.21913373 41.92435798 201.24717622 49.03405488 201.30175781 56.14379883 C201.34553026 61.88210248 201.36920295 67.62018282 201.37950897 73.35864067 C201.38684434 75.53728178 201.40116696 77.71591201 201.42292023 79.89445686 C201.61094316 99.52257926 199.76120514 117.14654679 185.7734375 132.35546875 C171.03951062 146.01842737 151.69696146 152.71773243 132 155 C131.26160889 155.08612549 130.52321777 155.17225098 129.76245117 155.26098633 C121.53737248 156.12238364 113.32347962 156.20018156 105.0625 156.1875 C104.33489471 156.18689575 103.60728943 156.1862915 102.8576355 156.18566895 C73.51724012 156.11967308 39.43047828 153.56425748 17.1484375 132.18359375 C16.08496094 131.10271484 16.08496094 131.10271484 15 130 C14.12214844 129.12021484 14.12214844 129.12021484 13.2265625 128.22265625 C2.64864763 116.81246889 -0.17545101 101.42097429 -0.11352539 86.39282227 C-0.11367142 85.45545731 -0.11381744 84.51809235 -0.1139679 83.55232239 C-0.11327477 80.47365961 -0.10551059 77.39505837 -0.09765625 74.31640625 C-0.09578994 72.17406752 -0.09436704 70.03172835 -0.09336853 67.88938904 C-0.08956016 62.26537893 -0.07974426 56.64139487 -0.06866455 51.01739502 C-0.05661038 44.26168608 -0.05204019 37.5059684 -0.04621124 30.75025177 C-0.03653157 20.50014976 -0.01736325 10.25010484 0 0 Z " fill="#0E47F2" transform="translate(1169,859)"/>
<path d="M0 0 C57.09 0 114.18 0 173 0 C169.11031605 5.83452592 165.33794654 11.23485757 160.875 16.5625 C159.84789909 17.78991247 158.82467679 19.02057762 157.8046875 20.25390625 C157.24528473 20.90726456 156.68588196 21.56062286 156.10952759 22.23377991 C154.42324865 24.44499474 153.11417399 26.50331583 151.75985718 28.90855408 C145.35286659 39.65896656 145.35286659 39.65896656 139.75138474 41.89937019 C133.38785351 43.24681491 126.94139711 42.83836717 120.484375 42.5625 C118.41653249 42.53260731 116.3485756 42.5098558 114.28057861 42.49389648 C108.87204693 42.43318535 103.47053889 42.27641305 98.0647583 42.09863281 C92.53502433 41.93409194 87.0041395 41.86170233 81.47265625 41.78125 C70.64487526 41.61032969 59.82412392 41.32927018 49 41 C49 46.94 49 52.88 49 59 C86.95 59 124.9 59 164 59 C162.5522141 61.89557179 161.37492289 63.98629652 159.453125 66.4765625 C158.93621094 67.14945313 158.41929687 67.82234375 157.88671875 68.515625 C157.34660156 69.21171875 156.80648437 69.9078125 156.25 70.625 C155.75628906 71.26695312 155.26257813 71.90890625 154.75390625 72.5703125 C153.59632773 74.072642 152.39632975 75.54264447 151.17041016 76.98974609 C149.3104072 79.56948023 148.22099085 81.68671068 146.96630859 84.56103516 C144.01880037 90.44455183 140.91309253 94.858197 135 98 C122.08770261 101.47284659 107.37273382 99.76753117 94.17236328 99.23596191 C88.18026485 99.01777503 82.18487485 98.93651393 76.18992615 98.83180237 C67.11988662 98.65828626 58.07111539 98.31333064 49 98 C49 116.48 49 134.96 49 154 C32.83 154 16.66 154 0 154 C0 103.18 0 52.36 0 0 Z " fill="#0E46F2" transform="translate(238,859)"/>
<path d="M0 0 C16.17 0 32.34 0 49 0 C49 37.29 49 74.58 49 113 C87.94 113 126.88 113 167 113 C165.49756887 116.00486227 164.25828032 118.12424284 162.234375 120.6953125 C161.68031982 121.40308838 161.12626465 122.11086426 160.55541992 122.84008789 C159.66173706 123.97111938 159.66173706 123.97111938 158.75 125.125 C157.49075564 126.73036697 156.23164521 128.33583898 154.97265625 129.94140625 C154.32184082 130.76914551 153.67102539 131.59688477 153.00048828 132.44970703 C149.09798792 137.42475203 145.2305929 142.42718258 141.35644531 147.42431641 C140.52064941 148.50011963 140.52064941 148.50011963 139.66796875 149.59765625 C138.92969849 150.54910522 138.92969849 150.54910522 138.17651367 151.51977539 C137 153 137 153 136 154 C134.25604929 154.09847473 132.50808117 154.12632065 130.76135254 154.12698364 C129.62551224 154.12980347 128.48967194 154.13262329 127.31941223 154.13552856 C126.06222885 154.13350433 124.80504547 154.1314801 123.50976562 154.12939453 C122.19449387 154.13114685 120.87922211 154.13289917 119.52409363 154.13470459 C115.90642318 154.13927865 112.28878112 154.13748948 108.67111015 154.1343255 C104.89324744 154.13180176 101.11538722 154.13413948 97.33752441 154.13571167 C90.99210166 154.13753332 84.64669052 154.13512717 78.30126953 154.13037109 C70.95483357 154.12492848 63.60842536 154.12669114 56.26199007 154.1321975 C49.96561333 154.13672875 43.66924496 154.13737912 37.37286711 154.13475883 C33.6074449 154.13319612 29.84203576 154.13300212 26.07661438 154.13629532 C21.88113753 154.13970802 17.68570887 154.13498411 13.49023438 154.12939453 C11.6044593 154.13243088 11.6044593 154.13243088 9.68058777 154.13552856 C8.54474747 154.13270874 7.40890717 154.12988892 6.23864746 154.12698364 C5.24533165 154.12660662 4.25201584 154.12622959 3.22859955 154.12584114 C1 154 1 154 0 153 C-0.0966888 151.02571766 -0.12187075 149.04792169 -0.12025452 147.0712738 C-0.12162918 145.78253357 -0.12300385 144.49379333 -0.12442017 143.16600037 C-0.12088055 141.72451759 -0.11724573 140.28303505 -0.11352539 138.84155273 C-0.11324353 137.33403526 -0.11340123 135.82651764 -0.1139679 134.31900024 C-0.11425591 130.21380656 -0.10835861 126.10864185 -0.10139394 122.00345492 C-0.09516099 117.7179674 -0.09455665 113.43247928 -0.09336853 109.14698792 C-0.09025504 101.02613348 -0.08204141 92.90529244 -0.07201904 84.78444391 C-0.06085845 75.54155126 -0.05534759 66.29865798 -0.05032361 57.05576026 C-0.03985881 38.03716436 -0.02151312 19.01858683 0 0 Z " fill="#0E46F2" transform="translate(1395,859)"/>
<path d="M0 0 C19.14 0 38.28 0 58 0 C58 17.16 58 34.32 58 52 C82.09 52 106.18 52 131 52 C131 34.84 131 17.68 131 0 C150.14 0 169.28 0 189 0 C189 52.47 189 104.94 189 159 C169.86 159 150.72 159 131 159 C131 140.52 131 122.04 131 103 C106.91 103 82.82 103 58 103 C58 121.48 58 139.96 58 159 C38.86 159 19.72 159 0 159 C0 106.53 0 54.06 0 0 Z M13 13 C13 56.56 13 100.12 13 145 C23.56 145 34.12 145 45 145 C45 126.85 45 108.7 45 90 C77.67 90 110.34 90 144 90 C144 108.15 144 126.3 144 145 C154.56 145 165.12 145 176 145 C176 101.44 176 57.88 176 13 C165.44 13 154.88 13 144 13 C144 30.16 144 47.32 144 65 C111.33 65 78.66 65 45 65 C45 47.84 45 30.68 45 13 C34.44 13 23.88 13 13 13 Z " fill="#0E47F2" transform="translate(1299,1031)"/>
<path d="M0 0 C18.81 0 37.62 0 57 0 C57.04898437 6.70441406 57.09796875 13.40882812 57.1484375 20.31640625 C57.18383052 24.56837431 57.21979439 28.82032221 57.2578125 33.07226562 C57.31807783 39.81841115 57.37624999 46.56452853 57.421875 53.31079102 C57.45879867 58.75087331 57.50517806 64.19080094 57.55806351 69.63075066 C57.5765698 71.70429707 57.5916916 73.7778766 57.60334396 75.85147285 C57.62027078 78.75994772 57.64932156 81.66807127 57.68115234 84.57641602 C57.68331253 85.43021851 57.68547272 86.284021 57.68769836 87.16369629 C57.76943145 93.0249206 57.92614926 98.73761738 62.0625 103.25 C69.27656213 107.54773914 76.86617401 108.58781279 85.125 109.1875 C86.13836426 109.26645508 87.15172852 109.34541016 88.19580078 109.42675781 C99.19992966 110.23539588 109.95168857 110.35900111 120.9375 109.1875 C121.62376465 109.11756836 122.3100293 109.04763672 123.01708984 108.97558594 C129.22284814 108.21889644 134.87711304 106.66138979 139.875 102.75 C144.31777956 97.00052057 144.30098151 90.652378 144.31884766 83.66821289 C144.32889328 82.76010864 144.3389389 81.85200439 144.34928894 80.91638184 C144.38001164 77.93514601 144.39712568 74.95399954 144.4140625 71.97265625 C144.43278292 69.89757016 144.45235699 67.82249161 144.4727478 65.74742126 C144.52398254 60.30101984 144.56365461 54.85459377 144.60089111 49.40808105 C144.64804145 42.86504628 144.70960214 36.32213302 144.76873779 29.77919769 C144.85684445 19.85284775 144.9266846 9.92651985 145 0 C164.14 0 183.28 0 203 0 C203.12032643 24.14550322 203.12032643 24.14550322 203.14648438 34.5078125 C203.16435645 41.55410617 203.18540564 48.6002819 203.22631836 55.64648438 C203.25912575 61.33290263 203.2768978 67.01919426 203.28463173 72.70569992 C203.29013708 74.86561448 203.30088671 77.0255228 203.31719017 79.18538284 C203.46492713 99.58504953 201.8298343 117.88066293 188 134 C187.3915625 134.81726562 186.783125 135.63453125 186.15625 136.4765625 C172.57368078 152.37210547 147.33880897 158.98690109 127.30078125 160.72265625 C90.90095923 163.02942772 47.3782342 162.9530008 18.3828125 137.72265625 C8.08989043 128.05586149 0.50149975 114.20699331 -0.08926582 99.82718277 C-0.12285784 97.20277083 -0.12364786 94.58017709 -0.11352539 91.95556641 C-0.11367142 90.95982605 -0.11381744 89.96408569 -0.1139679 88.93817139 C-0.11327333 85.65927931 -0.10550227 82.38044461 -0.09765625 79.1015625 C-0.09579045 76.82327302 -0.09436731 74.54498314 -0.09336853 72.26669312 C-0.08955611 66.27934658 -0.0797367 60.29202442 -0.06866455 54.3046875 C-0.05662138 47.11598718 -0.05204212 39.92727869 -0.04621124 32.73857117 C-0.03652427 21.82569717 -0.01735876 10.91287664 0 0 Z M13 13 C12.90928874 24.24924325 12.83604838 35.4982398 12.79275131 46.74776745 C12.77196096 51.97252788 12.74380115 57.19702304 12.69824219 62.42163086 C12.65447742 67.47263982 12.63079874 72.52339516 12.62049103 77.57457924 C12.61315426 79.49251607 12.59882873 81.41044051 12.57707977 83.32826805 C12.40202611 99.41834477 13.89413178 113.80209961 25.1171875 126.37109375 C45.30549945 145.99678062 77.11760927 148.22768587 103.8125 148.25 C104.54032684 148.25067474 105.26815369 148.25134949 106.01803589 148.25204468 C131.17272774 148.21514225 157.71604502 145.49490007 176.77734375 127.33984375 C186.59515829 117.004394 190.17845029 103.65805494 190.11352539 89.62963867 C190.11374443 88.38496323 190.11374443 88.38496323 190.1139679 87.11514282 C190.11327333 84.38272453 190.10550229 81.65037508 190.09765625 78.91796875 C190.09579045 77.0193943 190.09436731 75.12081937 190.09336853 73.22224426 C190.0895561 68.23278466 190.0797367 63.24335432 190.06866455 58.25390625 C190.05842303 53.15950923 190.05386504 48.06510748 190.04882812 42.97070312 C190.03811328 32.98045385 190.0205268 22.99023394 190 13 C179.44 13 168.88 13 158 13 C157.98018066 15.43689209 157.96036133 17.87378418 157.93994141 20.38452148 C157.87286897 28.45914097 157.79523229 36.5336344 157.71247292 44.60810757 C157.66264468 49.50099826 157.61631394 54.39386876 157.578125 59.28686523 C157.5411014 64.01374525 157.4946962 68.74045061 157.44193649 73.46718025 C157.42348291 75.26554343 157.40834205 77.06394392 157.39665604 78.86236382 C157.37963786 81.39206492 157.35056745 83.92137386 157.31884766 86.45092773 C157.31560738 87.55253235 157.31560738 87.55253235 157.31230164 88.6763916 C157.16323375 98.05475839 155.23624037 105.81080605 149 113 C135.26832943 125.81840032 109.18980694 123.551132 92 123 C77.80770707 122.22234011 61.23642948 121.23642948 50.625 110.625 C45.98796362 103.13440277 44.8602699 96.45332214 44.79467773 87.81323242 C44.78477814 87.00295593 44.77487854 86.19267944 44.76467896 85.35784912 C44.73319381 82.69041831 44.70835807 80.02296971 44.68359375 77.35546875 C44.663013 75.50172982 44.64201623 73.64799546 44.62062073 71.79426575 C44.56551583 66.92322503 44.51605561 62.05214276 44.46777344 57.18103027 C44.4174737 52.20723793 44.36183191 47.23350567 44.30664062 42.25976562 C44.19920075 32.5065599 44.09821835 22.75330295 44 13 C33.77 13 23.54 13 13 13 Z " fill="#0F47F2" transform="translate(1501,1031)"/>
<path d="M0 0 C1.6874269 0.00015917 3.37485866 0.00585622 5.06225586 0.01586914 C6.39189613 0.01799156 6.39189613 0.01799156 7.74839783 0.02015686 C10.59133215 0.02577324 13.43418892 0.03832848 16.27709961 0.05102539 C18.19962452 0.05603828 20.12215065 0.06060155 22.04467773 0.06469727 C26.76803925 0.07489891 31.49123219 0.09447102 36.21459961 0.11352539 C36.21459961 12.98352539 36.21459961 25.85352539 36.21459961 39.11352539 C49.41459961 39.11352539 62.61459961 39.11352539 76.21459961 39.11352539 C76.21459961 52.64352539 76.21459961 66.17352539 76.21459961 80.11352539 C63.01459961 80.11352539 49.81459961 80.11352539 36.21459961 80.11352539 C36.21459961 92.65352539 36.21459961 105.19352539 36.21459961 118.11352539 C49.41459961 118.11352539 62.61459961 118.11352539 76.21459961 118.11352539 C76.21459961 131.64352539 76.21459961 145.17352539 76.21459961 159.11352539 C62.68459961 159.11352539 49.15459961 159.11352539 35.21459961 159.11352539 C35.21459961 146.24352539 35.21459961 133.37352539 35.21459961 120.11352539 C22.42466165 120.15312944 22.42466165 120.15312944 9.63476562 120.20361328 C8.03767971 120.20653242 6.44059306 120.20908098 4.84350586 120.21118164 C4.00654175 120.21629761 3.16957764 120.22141357 2.30725098 120.22668457 C0.27601696 120.22699464 -1.7551251 120.17592727 -3.78540039 120.11352539 C-4.78540039 119.11352539 -4.78540039 119.11352539 -4.89892578 115.328125 C-4.89867464 113.64069811 -4.89311151 111.95326609 -4.88305664 110.26586914 C-4.88204956 109.4805481 -4.88104248 108.69522705 -4.88000488 107.8861084 C-4.87475677 104.94106596 -4.86079562 101.99604427 -4.84790039 99.05102539 C-4.82727539 92.47165039 -4.80665039 85.89227539 -4.78540039 79.11352539 C8.41459961 79.11352539 21.61459961 79.11352539 35.21459961 79.11352539 C35.21459961 66.57352539 35.21459961 54.03352539 35.21459961 41.11352539 C31.0090332 41.13092773 31.0090332 41.13092773 26.71850586 41.14868164 C24.01464959 41.15647172 21.31079455 41.16254876 18.60693359 41.16845703 C16.72216231 41.17349783 14.83739496 41.18033037 12.95263672 41.18896484 C10.24958325 41.20104156 7.5465813 41.20675608 4.84350586 41.21118164 C3.99558975 41.21634293 3.14767365 41.22150421 2.27406311 41.2268219 C0.25388892 41.22701734 -1.76617973 41.1755875 -3.78540039 41.11352539 C-5.65502757 39.24389821 -4.91426342 36.56688978 -4.92434692 34.07971191 C-4.92232269 33.23493286 -4.92029846 32.39015381 -4.91821289 31.51977539 C-4.91916962 30.65791626 -4.92012634 29.79605713 -4.92111206 28.90808105 C-4.92179389 27.08219327 -4.91993944 25.25630308 -4.91577148 23.43041992 C-4.91042325 20.62551461 -4.91571638 17.82076944 -4.92211914 15.01586914 C-4.92145836 13.24633753 -4.9201772 11.47680603 -4.91821289 9.70727539 C-4.92023712 8.86249634 -4.92226135 8.01771729 -4.92434692 7.14733887 C-4.89596551 0.1468316 -4.89596551 0.1468316 0 0 Z " fill="#0E46F2" transform="translate(1735.785400390625,1030.886474609375)"/>
<path d="M0 0 C19.14 0 38.28 0 58 0 C58 52.47 58 104.94 58 159 C38.86 159 19.72 159 0 159 C0 106.53 0 54.06 0 0 Z M13 13 C13 56.56 13 100.12 13 145 C23.56 145 34.12 145 45 145 C45 101.44 45 57.88 45 13 C34.44 13 23.88 13 13 13 Z " fill="#0E47F2" transform="translate(1226,1031)"/>
</svg>
